<svg width="1584" height="396" viewBox="0 0 1584 396" fill="none" xmlns="http://www.w3.org/2000/svg">
<rect width="1584" height="396" fill="#F5F5F5"/>
<g id="Awesome banner" clip-path="url(#clip0_0_1)">
<rect width="1584" height="396" fill="url(#paint0_linear_0_1)"/>
<ellipse id="Ellipse 2" cx="323" cy="64" rx="285" ry="288" fill="url(#paint1_linear_0_1)" fill-opacity="0.1"/>
<g id="copyright">
<path d="M75.95 334.52L72.30 334.52L72.30 311.16L77.20 311.16L83.70 330.04Q83.60 329.02 83.50 327.62Q83.41 326.23 83.33 324.79Q83.25 323.35 83.25 322.23L83.25 311.16L86.90 311.16L86.90 334.52L82 334.52L75.57 315.64Q75.63 316.57 75.73 317.88Q75.82 319.19 75.89 320.57Q75.95 321.94 75.95 323.10L75.95 334.52M98.80 334.84Q96.46 334.84 94.67 333.96Q92.88 333.08 91.89 331.53Q90.90 329.98 90.90 327.93Q90.90 325.78 92.13 324.18Q93.36 322.58 95.34 322.17L95.34 322.10Q93.65 321.75 92.61 320.38Q91.57 319 91.57 317.11Q91.57 315.26 92.48 313.85Q93.39 312.44 95.02 311.64Q96.66 310.84 98.80 310.84Q100.94 310.84 102.59 311.64Q104.24 312.44 105.15 313.85Q106.06 315.26 106.06 317.11Q106.06 319 105.01 320.38Q103.95 321.75 102.26 322.10L102.26 322.17Q104.24 322.58 105.47 324.18Q106.70 325.78 106.70 327.93Q106.70 329.98 105.71 331.53Q104.72 333.08 102.93 333.96Q101.14 334.84 98.80 334.84M98.80 320.73Q100.30 320.73 101.23 319.82Q102.16 318.90 102.16 317.46Q102.16 315.99 101.23 315.08Q100.30 314.17 98.80 314.17Q97.30 314.17 96.37 315.08Q95.44 315.99 95.44 317.46Q95.44 318.90 96.37 319.82Q97.30 320.73 98.80 320.73M98.80 331.45Q100.56 331.45 101.68 330.42Q102.80 329.40 102.80 327.74Q102.80 326.04 101.68 325Q100.56 323.96 98.80 323.96Q97.04 323.96 95.92 325Q94.80 326.04 94.80 327.74Q94.80 329.40 95.92 330.42Q97.04 331.45 98.80 331.45M114.35 334.52L110.70 334.52L110.70 311.16L115.60 311.16L122.10 330.04Q122 329.02 121.90 327.62Q121.81 326.23 121.73 324.79Q121.65 323.35 121.65 322.23L121.65 311.16L125.30 311.16L125.30 334.52L120.40 334.52L113.97 315.64Q114.03 316.57 114.13 317.88Q114.22 319.19 114.29 320.57Q114.35 321.94 114.35 323.10" fill="white" fill-opacity="0.9"/>
<path d="M161.48 325.24L151.24 325.24L151.24 322.68L161.48 322.68" fill="white" fill-opacity="0.9"/>
<path d="M195.02 334.84Q191.82 334.84 189.96 333.05Q188.11 331.26 188.11 328.12L188.11 317.56Q188.11 314.42 189.96 312.63Q191.82 310.84 195.02 310.84Q198.15 310.84 200.01 312.65Q201.87 314.46 201.87 317.56L198.99 317.56Q198.99 315.58 197.95 314.50Q196.91 313.43 195.02 313.43Q193.13 313.43 192.06 314.50Q190.99 315.58 190.99 317.56L190.99 328.12Q190.99 330.10 192.06 331.18Q193.13 332.25 195.02 332.25Q196.91 332.25 197.95 331.18Q198.99 330.10 198.99 328.12L201.87 328.12Q201.87 331.22 200.01 333.03Q198.15 334.84 195.02 334.84" fill="white" fill-opacity="0.9"/>
<path d="M213.96 334.84Q210.83 334.84 209 333.02Q207.18 331.19 207.18 327.80L207.18 317.88Q207.18 314.49 209 312.66Q210.83 310.84 213.96 310.84Q217.10 310.84 218.92 312.66Q220.75 314.49 220.75 317.85L220.75 327.80Q220.75 331.19 218.92 333.02Q217.10 334.84 213.96 334.84M213.96 332.25Q215.85 332.25 216.86 331.18Q217.87 330.10 217.87 328.12L217.87 317.56Q217.87 315.58 216.86 314.50Q215.85 313.43 213.96 313.43Q212.11 313.43 211.08 314.50Q210.06 315.58 210.06 317.56L210.06 328.12Q210.06 330.10 211.08 331.18Q212.11 332.25 213.96 332.25" fill="white" fill-opacity="0.9"/>
<path d="M228.65 334.52L225.87 334.52L225.87 311.16L230.12 311.16L233.10 321.27L236.20 311.16L240.46 311.16L240.46 334.52L237.67 334.52L237.67 323.48Q237.67 321.91 237.72 319.88Q237.77 317.85 237.87 315.77Q237.96 313.69 238.09 312.02L234.31 324.09L231.82 324.09L228.20 312.31Q228.46 314.68 228.55 317.50Q228.65 320.31 228.65 323.48" fill="white" fill-opacity="0.9"/>
<path d="M247.85 334.52L245.07 334.52L245.07 311.16L249.32 311.16L252.30 321.27L255.40 311.16L259.66 311.16L259.66 334.52L256.87 334.52L256.87 323.48Q256.87 321.91 256.92 319.88Q256.97 317.85 257.07 315.77Q257.16 313.69 257.29 312.02L253.51 324.09L251.02 324.09L247.40 312.31Q247.66 314.68 247.75 317.50Q247.85 320.31 247.85 323.48" fill="white" fill-opacity="0.9"/>
<path d="M271.56 334.84Q268.30 334.84 266.57 333.03Q264.84 331.22 264.84 328.12L264.84 311.16L267.72 311.16L267.72 328.12Q267.72 330.04 268.67 331.16Q269.61 332.28 271.56 332.28Q273.48 332.28 274.44 331.16Q275.40 330.04 275.40 328.12L275.40 311.16L278.28 311.16L278.28 328.12Q278.28 331.26 276.57 333.05Q274.86 334.84 271.56 334.84" fill="white" fill-opacity="0.9"/>
<path d="M286.83 334.52L284.04 334.52L284.04 311.16L287.88 311.16L295.02 331.16Q294.95 330.36 294.87 329.19Q294.79 328.02 294.75 326.73Q294.70 325.43 294.70 324.28L294.70 311.16L297.48 311.16L297.48 334.52L293.64 334.52L286.54 314.52Q286.60 315.29 286.67 316.46Q286.73 317.62 286.78 318.92Q286.83 320.22 286.83 321.40" fill="white" fill-opacity="0.9"/>
<path d="M316.20 334.52L303.72 334.52L303.72 331.90L308.49 331.90L308.49 313.78L303.72 313.78L303.72 311.16L316.20 311.16L316.20 313.78L311.43 313.78L311.43 331.90L316.20 331.90" fill="white" fill-opacity="0.9"/>
<path d="M330.60 334.52L327.72 334.52L327.72 313.78L321.32 313.78L321.32 311.16L337 311.16L337 313.78L330.60 313.78" fill="white" fill-opacity="0.9"/>
<path d="M349.80 334.52L346.92 334.52L346.92 325.78L339.88 311.16L342.95 311.16L347.50 320.76Q347.88 321.56 348.11 322.12Q348.33 322.68 348.39 322.94Q348.46 322.68 348.70 322.12Q348.94 321.56 349.32 320.76L353.87 311.16L356.84 311.16L349.80 325.78" fill="white" fill-opacity="0.9"/>
<path d="M382.83 334.52L380.04 334.52L380.04 311.16L383.88 311.16L391.02 331.16Q390.95 330.36 390.87 329.19Q390.79 328.02 390.75 326.73Q390.70 325.43 390.70 324.28L390.70 311.16L393.48 311.16L393.48 334.52L389.64 334.52L382.54 314.52Q382.60 315.29 382.67 316.46Q382.73 317.62 382.78 318.92Q382.83 320.22 382.83 321.40" fill="white" fill-opacity="0.9"/>
<path d="M405.96 334.84Q402.83 334.84 401 333.02Q399.18 331.19 399.18 327.80L399.18 317.88Q399.18 314.49 401 312.66Q402.83 310.84 405.96 310.84Q409.10 310.84 410.92 312.66Q412.75 314.49 412.75 317.85L412.75 327.80Q412.75 331.19 410.92 333.02Q409.10 334.84 405.96 334.84M405.96 332.25Q407.85 332.25 408.86 331.18Q409.87 330.10 409.87 328.12L409.87 317.56Q409.87 315.58 408.86 314.50Q407.85 313.43 405.96 313.43Q404.11 313.43 403.08 314.50Q402.06 315.58 402.06 317.56L402.06 328.12Q402.06 330.10 403.08 331.18Q404.11 332.25 405.96 332.25" fill="white" fill-opacity="0.9"/>
<path d="M424.55 334.52L418.51 334.52L418.51 311.16L424.55 311.16Q426.83 311.16 428.47 312.02Q430.12 312.89 431.03 314.46Q431.95 316.02 431.95 318.17L431.95 327.48Q431.95 329.62 431.03 331.21Q430.12 332.79 428.47 333.66Q426.83 334.52 424.55 334.52M421.39 313.72L421.39 331.96L424.55 331.96Q426.67 331.96 427.87 330.78Q429.07 329.59 429.07 327.48L429.07 318.17Q429.07 316.09 427.87 314.90Q426.67 313.72 424.55 313.72" fill="white" fill-opacity="0.9"/>
<path d="M451.40 334.52L437.96 334.52L437.96 311.16L451.40 311.16L451.40 313.78L440.81 313.78L440.81 321.02L450.28 321.02L450.28 323.58L440.81 323.58L440.81 331.90L451.40 331.90" fill="white" fill-opacity="0.9"/>
<path d="M463.69 334.84Q460.30 334.84 458.28 333.05Q456.27 331.26 456.27 328.12L459.15 328.12Q459.15 330.07 460.39 331.18Q461.64 332.28 463.69 332.28Q465.67 332.28 466.86 331.13Q468.04 329.98 468.04 328.12Q468.04 326.71 467.29 325.67Q466.54 324.63 465.13 324.25L461.58 323.26Q459.37 322.62 458.11 320.97Q456.84 319.32 456.84 317.08Q456.84 315.22 457.67 313.82Q458.51 312.41 460.01 311.62Q461.51 310.84 463.47 310.84Q465.45 310.84 466.97 311.62Q468.49 312.41 469.35 313.80Q470.22 315.19 470.22 317.02L467.34 317.02Q467.34 315.42 466.25 314.41Q465.16 313.40 463.47 313.40Q461.77 313.40 460.71 314.41Q459.66 315.42 459.66 317.02Q459.66 318.30 460.35 319.21Q461.03 320.12 462.28 320.47L465.93 321.50Q468.27 322.14 469.56 323.91Q470.86 325.69 470.86 328.12Q470.86 331.19 468.91 333.02Q466.95 334.84 463.69 334.84" fill="white" fill-opacity="0.9"/>
</g>
<path d="M74.37 197.64L72.21 197.64L72.21 180.12L74.37 180.12L74.37 187.66L76.96 187.66L80.85 180.12L83.20 180.12L78.86 188.57L83.44 197.64L80.97 197.64L76.89 189.55L74.37 189.55" fill="white" fill-opacity="0.7"/>
<path d="M91.60 197.88Q89.27 197.88 87.84 196.48Q86.42 195.07 86.42 192.60L86.42 189.48Q86.42 187.01 87.84 185.60Q89.27 184.20 91.60 184.20Q93.16 184.20 94.32 184.82Q95.49 185.45 96.14 186.58Q96.78 187.70 96.78 189.24L96.78 191.59L88.53 191.59L88.53 192.84Q88.53 194.30 89.37 195.16Q90.21 196.01 91.60 196.01Q92.80 196.01 93.58 195.54Q94.36 195.07 94.53 194.28L96.69 194.28Q96.47 195.94 95.08 196.91Q93.69 197.88 91.60 197.88M88.53 189.24L88.53 189.91L94.67 189.91L94.67 189.24Q94.67 187.68 93.87 186.83Q93.06 185.98 91.60 185.98Q90.14 185.98 89.33 186.83Q88.53 187.68 88.53 189.24" fill="white" fill-opacity="0.7"/>
<path d="M103.65 197.64L101.49 197.64L101.49 184.44L103.65 184.44L103.65 186.96L103.70 186.96Q103.86 185.69 104.78 184.94Q105.69 184.20 107.22 184.20Q109.29 184.20 110.40 185.44Q111.52 186.67 111.52 188.95L111.52 190.08L109.36 190.08L109.36 188.95Q109.36 186.07 106.55 186.07Q105.14 186.07 104.39 186.89Q103.65 187.70 103.65 189.24" fill="white" fill-opacity="0.7"/>
<path d="M119.25 197.88Q117.21 197.88 116.01 196.74Q114.81 195.60 114.81 193.75Q114.81 192.53 115.36 191.62Q115.91 190.70 116.90 190.19Q117.88 189.67 119.15 189.67L123.23 189.67L123.23 188.64Q123.23 186.07 120.42 186.07Q119.18 186.07 118.41 186.53Q117.64 186.98 117.59 187.80L115.43 187.80Q115.55 186.24 116.88 185.22Q118.22 184.20 120.42 184.20Q122.82 184.20 124.11 185.35Q125.39 186.50 125.39 188.57L125.39 197.64L123.26 197.64L123.26 195.24L123.21 195.24Q123.02 196.46 121.98 197.17Q120.95 197.88 119.25 197.88M119.78 196.06Q121.36 196.06 122.30 195.29Q123.23 194.52 123.23 193.20L123.23 191.35L119.39 191.35Q118.34 191.35 117.68 191.99Q117.02 192.62 117.02 193.68Q117.02 194.78 117.75 195.42Q118.48 196.06 119.78 196.06" fill="white" fill-opacity="0.7"/>
<path d="M140.80 197.64L136.72 197.64Q134.97 197.64 133.92 196.62Q132.88 195.60 132.88 193.92L132.88 182.09L128.32 182.09L128.32 180.12L135.04 180.12L135.04 193.92Q135.04 194.74 135.50 195.20Q135.95 195.67 136.72 195.67L140.80 195.67" fill="white" fill-opacity="0.7"/>
<path d="M148.05 197.88Q146.01 197.88 144.81 196.74Q143.61 195.60 143.61 193.75Q143.61 192.53 144.16 191.62Q144.71 190.70 145.70 190.19Q146.68 189.67 147.95 189.67L152.03 189.67L152.03 188.64Q152.03 186.07 149.22 186.07Q147.98 186.07 147.21 186.53Q146.44 186.98 146.39 187.80L144.23 187.80Q144.35 186.24 145.68 185.22Q147.02 184.20 149.22 184.20Q151.62 184.20 152.91 185.35Q154.19 186.50 154.19 188.57L154.19 197.64L152.06 197.64L152.06 195.24L152.01 195.24Q151.82 196.46 150.78 197.17Q149.75 197.88 148.05 197.88M148.58 196.06Q150.16 196.06 151.10 195.29Q152.03 194.52 152.03 193.20L152.03 191.35L148.19 191.35Q147.14 191.35 146.48 191.99Q145.82 192.62 145.82 193.68Q145.82 194.78 146.55 195.42Q147.28 196.06 148.58 196.06" fill="white" fill-opacity="0.7"/>
<path d="M178.19 197.88Q175.79 197.88 174.40 196.54Q173.01 195.19 173.01 192.84L173.01 184.92Q173.01 182.57 174.40 181.22Q175.79 179.88 178.19 179.88Q180.54 179.88 181.94 181.24Q183.33 182.59 183.33 184.92L181.17 184.92Q181.17 183.43 180.39 182.63Q179.61 181.82 178.19 181.82Q176.78 181.82 175.97 182.63Q175.17 183.43 175.17 184.92L175.17 192.84Q175.17 194.33 175.97 195.13Q176.78 195.94 178.19 195.94Q179.61 195.94 180.39 195.13Q181.17 194.33 181.17 192.84L183.33 192.84Q183.33 195.17 181.94 196.52Q180.54 197.88 178.19 197.88" fill="white" fill-opacity="0.7"/>
<path d="M198.52 197.64L187.24 197.64L187.24 195.67L191.92 195.67L191.92 186.41L187.72 186.41L187.72 184.44L194.08 184.44L194.08 195.67L198.52 195.67L198.52 197.64M192.76 182.06Q191.97 182.06 191.51 181.66Q191.06 181.25 191.06 180.55Q191.06 179.83 191.51 179.41Q191.97 178.99 192.76 178.99Q193.55 178.99 194.01 179.41Q194.46 179.83 194.46 180.55Q194.46 181.25 194.01 181.66Q193.55 182.06 192.76 182.06" fill="white" fill-opacity="0.7"/>
<path d="M208.22 197.64L205.38 197.64L200.90 184.44L203.22 184.44L206.10 193.32Q206.37 194.11 206.56 194.84Q206.75 195.58 206.85 195.98Q206.97 195.58 207.14 194.84Q207.30 194.11 207.54 193.32L210.42 184.44L212.70 184.44" fill="white" fill-opacity="0.7"/>
<path d="M227.32 197.64L216.04 197.64L216.04 195.67L220.72 195.67L220.72 186.41L216.52 186.41L216.52 184.44L222.88 184.44L222.88 195.67L227.32 195.67L227.32 197.64M221.56 182.06Q220.77 182.06 220.31 181.66Q219.86 181.25 219.86 180.55Q219.86 179.83 220.31 179.41Q220.77 178.99 221.56 178.99Q222.35 178.99 222.81 179.41Q223.26 179.83 223.26 180.55Q223.26 181.25 222.81 181.66Q222.35 182.06 221.56 182.06" fill="white" fill-opacity="0.7"/>
<path d="M241.60 197.64L237.52 197.64Q235.77 197.64 234.72 196.62Q233.68 195.60 233.68 193.92L233.68 182.09L229.12 182.09L229.12 180.12L235.84 180.12L235.84 193.92Q235.84 194.74 236.30 195.20Q236.75 195.67 237.52 195.67L241.60 195.67" fill="white" fill-opacity="0.7"/>
<path d="M264.50 197.88Q261.95 197.88 260.44 196.54Q258.93 195.19 258.93 192.84L261.09 192.84Q261.09 194.30 262.02 195.13Q262.96 195.96 264.50 195.96Q265.98 195.96 266.87 195.10Q267.76 194.23 267.76 192.84Q267.76 191.78 267.20 191Q266.63 190.22 265.58 189.94L262.91 189.19Q261.26 188.71 260.31 187.48Q259.36 186.24 259.36 184.56Q259.36 183.17 259.98 182.11Q260.61 181.06 261.74 180.47Q262.86 179.88 264.33 179.88Q265.82 179.88 266.96 180.47Q268.10 181.06 268.74 182.10Q269.39 183.14 269.39 184.51L267.23 184.51Q267.23 183.31 266.42 182.56Q265.60 181.80 264.33 181.80Q263.06 181.80 262.26 182.56Q261.47 183.31 261.47 184.51Q261.47 185.47 261.99 186.16Q262.50 186.84 263.44 187.10L266.18 187.87Q267.93 188.35 268.90 189.68Q269.87 191.02 269.87 192.84Q269.87 195.14 268.41 196.51Q266.94 197.88 264.50 197.88" fill="white" fill-opacity="0.7"/>
<path d="M278.78 197.88Q276.50 197.88 275.13 196.52Q273.76 195.17 273.76 192.84L273.76 184.44L275.92 184.44L275.92 192.84Q275.92 194.28 276.69 195.13Q277.46 195.98 278.78 195.98Q280.12 195.98 280.90 195.13Q281.68 194.28 281.68 192.84L281.68 184.44L283.84 184.44L283.84 192.84Q283.84 195.17 282.45 196.52Q281.06 197.88 278.78 197.88" fill="white" fill-opacity="0.7"/>
<path d="M290.37 201.96L288.21 201.96L288.21 184.44L290.37 184.44L290.37 186.96L290.39 186.96Q290.56 185.66 291.52 184.93Q292.48 184.20 293.97 184.20Q295.96 184.20 297.14 185.51Q298.31 186.82 298.31 189.10L298.31 192.96Q298.31 195.24 297.14 196.56Q295.96 197.88 293.97 197.88Q292.48 197.88 291.52 197.14Q290.56 196.39 290.39 195.12L290.32 195.12L290.37 198.12L290.37 201.96M293.25 196.01Q294.62 196.01 295.38 195.29Q296.15 194.57 296.15 192.96L296.15 189.12Q296.15 187.49 295.38 186.78Q294.62 186.07 293.25 186.07Q291.93 186.07 291.15 186.91Q290.37 187.75 290.37 189.24L290.37 192.84Q290.37 194.33 291.15 195.17Q291.93 196.01 293.25 196.01" fill="white" fill-opacity="0.7"/>
<path d="M304.77 201.96L302.61 201.96L302.61 184.44L304.77 184.44L304.77 186.96L304.79 186.96Q304.96 185.66 305.92 184.93Q306.88 184.20 308.37 184.20Q310.36 184.20 311.54 185.51Q312.71 186.82 312.71 189.10L312.71 192.96Q312.71 195.24 311.54 196.56Q310.36 197.88 308.37 197.88Q306.88 197.88 305.92 197.14Q304.96 196.39 304.79 195.12L304.72 195.12L304.77 198.12L304.77 201.96M307.65 196.01Q309.02 196.01 309.78 195.29Q310.55 194.57 310.55 192.96L310.55 189.12Q310.55 187.49 309.78 186.78Q309.02 186.07 307.65 186.07Q306.33 186.07 305.55 186.91Q304.77 187.75 304.77 189.24L304.77 192.84Q304.77 194.33 305.55 195.17Q306.33 196.01 307.65 196.01" fill="white" fill-opacity="0.7"/>
<path d="M328 197.64L323.92 197.64Q322.17 197.64 321.12 196.62Q320.08 195.60 320.08 193.92L320.08 182.09L315.52 182.09L315.52 180.12L322.24 180.12L322.24 193.92Q322.24 194.74 322.70 195.20Q323.15 195.67 323.92 195.67L328 195.67" fill="white" fill-opacity="0.7"/>
<path d="M342.52 197.64L331.24 197.64L331.24 195.67L335.92 195.67L335.92 186.41L331.72 186.41L331.72 184.44L338.08 184.44L338.08 195.67L342.52 195.67L342.52 197.64M336.76 182.06Q335.97 182.06 335.51 181.66Q335.06 181.25 335.06 180.55Q335.06 179.83 335.51 179.41Q335.97 178.99 336.76 178.99Q337.55 178.99 338.01 179.41Q338.46 179.83 338.46 180.55Q338.46 181.25 338.01 181.66Q337.55 182.06 336.76 182.06" fill="white" fill-opacity="0.7"/>
<path d="M350.80 197.88Q348.47 197.88 347.04 196.48Q345.62 195.07 345.62 192.60L345.62 189.48Q345.62 187.01 347.04 185.60Q348.47 184.20 350.80 184.20Q352.36 184.20 353.52 184.82Q354.69 185.45 355.34 186.58Q355.98 187.70 355.98 189.24L355.98 191.59L347.73 191.59L347.73 192.84Q347.73 194.30 348.57 195.16Q349.41 196.01 350.80 196.01Q352 196.01 352.78 195.54Q353.56 195.07 353.73 194.28L355.89 194.28Q355.67 195.94 354.28 196.91Q352.89 197.88 350.80 197.88M347.73 189.24L347.73 189.91L353.87 189.91L353.87 189.24Q353.87 187.68 353.07 186.83Q352.26 185.98 350.80 185.98Q349.34 185.98 348.53 186.83Q347.73 187.68 347.73 189.24" fill="white" fill-opacity="0.7"/>
<path d="M365.73 197.83L364.67 197.83Q362.46 197.83 361.25 196.84Q360.04 195.84 360.04 194.02L362.20 194.02Q362.20 194.93 362.85 195.44Q363.50 195.96 364.67 195.96L365.73 195.96Q366.93 195.96 367.59 195.43Q368.25 194.90 368.25 193.94Q368.25 192.24 366.69 192.02L363.04 191.50Q361.70 191.30 360.95 190.38Q360.21 189.46 360.21 187.94Q360.21 186.22 361.40 185.23Q362.58 184.25 364.67 184.25L365.73 184.25Q367.65 184.25 368.86 185.20Q370.07 186.14 370.17 187.68L367.98 187.68Q367.94 186.98 367.32 186.53Q366.71 186.07 365.73 186.07L364.67 186.07Q363.57 186.07 362.94 186.58Q362.32 187.08 362.32 187.94Q362.32 189.34 363.59 189.53L367 190.01Q370.36 190.49 370.36 193.94Q370.36 195.79 369.15 196.81Q367.94 197.83 365.73 197.83" fill="white" fill-opacity="0.7"/>
<path d="M393.54 197.64L389.01 197.64L389.01 180.12L393.54 180.12Q395.25 180.12 396.48 180.77Q397.72 181.42 398.40 182.59Q399.09 183.77 399.09 185.38L399.09 192.36Q399.09 193.97 398.40 195.16Q397.72 196.34 396.48 196.99Q395.25 197.64 393.54 197.64M391.17 182.04L391.17 195.72L393.54 195.72Q395.13 195.72 396.03 194.83Q396.93 193.94 396.93 192.36L396.93 185.38Q396.93 183.82 396.03 182.93Q395.13 182.04 393.54 182.04" fill="white" fill-opacity="0.7"/>
<path d="M408.40 197.88Q406.07 197.88 404.64 196.48Q403.22 195.07 403.22 192.60L403.22 189.48Q403.22 187.01 404.64 185.60Q406.07 184.20 408.40 184.20Q409.96 184.20 411.12 184.82Q412.29 185.45 412.94 186.58Q413.58 187.70 413.58 189.24L413.58 191.59L405.33 191.59L405.33 192.84Q405.33 194.30 406.17 195.16Q407.01 196.01 408.40 196.01Q409.60 196.01 410.38 195.54Q411.16 195.07 411.33 194.28L413.49 194.28Q413.27 195.94 411.88 196.91Q410.49 197.88 408.40 197.88M405.33 189.24L405.33 189.91L411.47 189.91L411.47 189.24Q411.47 187.68 410.67 186.83Q409.86 185.98 408.40 185.98Q406.94 185.98 406.13 186.83Q405.33 187.68 405.33 189.24" fill="white" fill-opacity="0.7"/>
<path d="M419.97 201.96L417.81 201.96L417.81 184.44L419.97 184.44L419.97 186.96L419.99 186.96Q420.16 185.66 421.12 184.93Q422.08 184.20 423.57 184.20Q425.56 184.20 426.74 185.51Q427.91 186.82 427.91 189.10L427.91 192.96Q427.91 195.24 426.74 196.56Q425.56 197.88 423.57 197.88Q422.08 197.88 421.12 197.14Q420.16 196.39 419.99 195.12L419.92 195.12L419.97 198.12L419.97 201.96M422.85 196.01Q424.22 196.01 424.98 195.29Q425.75 194.57 425.75 192.96L425.75 189.12Q425.75 187.49 424.98 186.78Q424.22 186.07 422.85 186.07Q421.53 186.07 420.75 186.91Q419.97 187.75 419.97 189.24L419.97 192.84Q419.97 194.33 420.75 195.17Q421.53 196.01 422.85 196.01" fill="white" fill-opacity="0.7"/>
<path d="M436.05 197.88Q434.01 197.88 432.81 196.74Q431.61 195.60 431.61 193.75Q431.61 192.53 432.16 191.62Q432.71 190.70 433.70 190.19Q434.68 189.67 435.95 189.67L440.03 189.67L440.03 188.64Q440.03 186.07 437.22 186.07Q435.98 186.07 435.21 186.53Q434.44 186.98 434.39 187.80L432.23 187.80Q432.35 186.24 433.68 185.22Q435.02 184.20 437.22 184.20Q439.62 184.20 440.91 185.35Q442.19 186.50 442.19 188.57L442.19 197.64L440.06 197.64L440.06 195.24L440.01 195.24Q439.82 196.46 438.78 197.17Q437.75 197.88 436.05 197.88M436.58 196.06Q438.16 196.06 439.10 195.29Q440.03 194.52 440.03 193.20L440.03 191.35L436.19 191.35Q435.14 191.35 434.48 191.99Q433.82 192.62 433.82 193.68Q433.82 194.78 434.55 195.42Q435.28 196.06 436.58 196.06" fill="white" fill-opacity="0.7"/>
<path d="M449.25 197.64L447.09 197.64L447.09 184.44L449.25 184.44L449.25 186.96L449.30 186.96Q449.46 185.69 450.38 184.94Q451.29 184.20 452.82 184.20Q454.89 184.20 456 185.44Q457.12 186.67 457.12 188.95L457.12 190.08L454.96 190.08L454.96 188.95Q454.96 186.07 452.15 186.07Q450.74 186.07 449.99 186.89Q449.25 187.70 449.25 189.24" fill="white" fill-opacity="0.7"/>
<path d="M471.16 197.64L467.32 197.64Q465.69 197.64 464.70 196.69Q463.72 195.74 463.72 194.16L463.72 186.41L459.93 186.41L459.93 184.44L463.72 184.44L463.72 180.72L465.88 180.72L465.88 184.44L471.28 184.44L471.28 186.41L465.88 186.41L465.88 194.16Q465.88 194.83 466.28 195.25Q466.67 195.67 467.32 195.67L471.16 195.67" fill="white" fill-opacity="0.7"/>
<path d="M476.66 197.64L474.64 197.64L474.64 184.44L476.51 184.44L476.51 186.19L476.56 186.19Q476.68 185.30 477.27 184.75Q477.86 184.20 478.77 184.20Q479.63 184.20 480.23 184.70Q480.83 185.21 481.10 186.07L481.12 186.07Q481.29 185.21 481.88 184.70Q482.46 184.20 483.38 184.20Q484.65 184.20 485.40 185.15Q486.16 186.10 486.16 187.61L486.16 197.64L484.14 197.64L484.14 187.58Q484.14 186.79 483.76 186.32Q483.38 185.86 482.70 185.86Q482.06 185.86 481.67 186.31Q481.29 186.77 481.29 187.56L481.29 197.64L479.51 197.64L479.51 187.58Q479.51 186.79 479.13 186.32Q478.74 185.86 478.10 185.86Q477.42 185.86 477.04 186.31Q476.66 186.77 476.66 187.56" fill="white" fill-opacity="0.7"/>
<path d="M494.80 197.88Q492.47 197.88 491.04 196.48Q489.62 195.07 489.62 192.60L489.62 189.48Q489.62 187.01 491.04 185.60Q492.47 184.20 494.80 184.20Q496.36 184.20 497.52 184.82Q498.69 185.45 499.34 186.58Q499.98 187.70 499.98 189.24L499.98 191.59L491.73 191.59L491.73 192.84Q491.73 194.30 492.57 195.16Q493.41 196.01 494.80 196.01Q496 196.01 496.78 195.54Q497.56 195.07 497.73 194.28L499.89 194.28Q499.67 195.94 498.28 196.91Q496.89 197.88 494.80 197.88M491.73 189.24L491.73 189.91L497.87 189.91L497.87 189.24Q497.87 187.68 497.07 186.83Q496.26 185.98 494.80 185.98Q493.34 185.98 492.53 186.83Q491.73 187.68 491.73 189.24" fill="white" fill-opacity="0.7"/>
<path d="M506.37 197.64L504.21 197.64L504.21 184.44L506.37 184.44L506.37 186.96L506.39 186.96Q506.56 185.64 507.47 184.92Q508.38 184.20 509.90 184.20Q511.89 184.20 513.06 185.42Q514.24 186.65 514.24 188.76L514.24 197.64L512.08 197.64L512.08 189.14Q512.08 187.63 511.32 186.83Q510.57 186.02 509.27 186.02Q507.93 186.02 507.15 186.86Q506.37 187.70 506.37 189.24" fill="white" fill-opacity="0.7"/>
<path d="M528.76 197.64L524.92 197.64Q523.29 197.64 522.30 196.69Q521.32 195.74 521.32 194.16L521.32 186.41L517.53 186.41L517.53 184.44L521.32 184.44L521.32 180.72L523.48 180.72L523.48 184.44L528.88 184.44L528.88 186.41L523.48 186.41L523.48 194.16Q523.48 194.83 523.88 195.25Q524.27 195.67 524.92 195.67L528.76 195.67" fill="white" fill-opacity="0.7"/>
<path d="M558.52 197.64L547.24 197.64L547.24 195.67L551.92 195.67L551.92 186.41L547.72 186.41L547.72 184.44L554.08 184.44L554.08 195.67L558.52 195.67L558.52 197.64M552.76 182.06Q551.97 182.06 551.51 181.66Q551.06 181.25 551.06 180.55Q551.06 179.83 551.51 179.41Q551.97 178.99 552.76 178.99Q553.55 178.99 554.01 179.41Q554.46 179.83 554.46 180.55Q554.46 181.25 554.01 181.66Q553.55 182.06 552.76 182.06" fill="white" fill-opacity="0.7"/>
<path d="M567.33 197.83L566.27 197.83Q564.06 197.83 562.85 196.84Q561.64 195.84 561.64 194.02L563.80 194.02Q563.80 194.93 564.45 195.44Q565.10 195.96 566.27 195.96L567.33 195.96Q568.53 195.96 569.19 195.43Q569.85 194.90 569.85 193.94Q569.85 192.24 568.29 192.02L564.64 191.50Q563.30 191.30 562.55 190.38Q561.81 189.46 561.81 187.94Q561.81 186.22 563 185.23Q564.18 184.25 566.27 184.25L567.33 184.25Q569.25 184.25 570.46 185.20Q571.67 186.14 571.77 187.68L569.58 187.68Q569.54 186.98 568.92 186.53Q568.31 186.07 567.33 186.07L566.27 186.07Q565.17 186.07 564.54 186.58Q563.92 187.08 563.92 187.94Q563.92 189.34 565.19 189.53L568.60 190.01Q571.96 190.49 571.96 193.94Q571.96 195.79 570.75 196.81Q569.54 197.83 567.33 197.83" fill="white" fill-opacity="0.7"/>
<path d="M581.73 197.83L580.67 197.83Q578.46 197.83 577.25 196.84Q576.04 195.84 576.04 194.02L578.20 194.02Q578.20 194.93 578.85 195.44Q579.50 195.96 580.67 195.96L581.73 195.96Q582.93 195.96 583.59 195.43Q584.25 194.90 584.25 193.94Q584.25 192.24 582.69 192.02L579.04 191.50Q577.70 191.30 576.95 190.38Q576.21 189.46 576.21 187.94Q576.21 186.22 577.40 185.23Q578.58 184.25 580.67 184.25L581.73 184.25Q583.65 184.25 584.86 185.20Q586.07 186.14 586.17 187.68L583.98 187.68Q583.94 186.98 583.32 186.53Q582.71 186.07 581.73 186.07L580.67 186.07Q579.57 186.07 578.94 186.58Q578.32 187.08 578.32 187.94Q578.32 189.34 579.59 189.53L583 190.01Q586.36 190.49 586.36 193.94Q586.36 195.79 585.15 196.81Q583.94 197.83 581.73 197.83" fill="white" fill-opacity="0.7"/>
<path d="M595.58 197.88Q593.30 197.88 591.93 196.52Q590.56 195.17 590.56 192.84L590.56 184.44L592.72 184.44L592.72 192.84Q592.72 194.28 593.49 195.13Q594.26 195.98 595.58 195.98Q596.92 195.98 597.70 195.13Q598.48 194.28 598.48 192.84L598.48 184.44L600.64 184.44L600.64 192.84Q600.64 195.17 599.25 196.52Q597.86 197.88 595.58 197.88" fill="white" fill-opacity="0.7"/>
<path d="M610 197.88Q607.67 197.88 606.24 196.48Q604.82 195.07 604.82 192.60L604.82 189.48Q604.82 187.01 606.24 185.60Q607.67 184.20 610 184.20Q611.56 184.20 612.72 184.82Q613.89 185.45 614.54 186.58Q615.18 187.70 615.18 189.24L615.18 191.59L606.93 191.59L606.93 192.84Q606.93 194.30 607.77 195.16Q608.61 196.01 610 196.01Q611.20 196.01 611.98 195.54Q612.76 195.07 612.93 194.28L615.09 194.28Q614.87 195.94 613.48 196.91Q612.09 197.88 610 197.88M606.93 189.24L606.93 189.91L613.07 189.91L613.07 189.24Q613.07 187.68 612.27 186.83Q611.46 185.98 610 185.98Q608.54 185.98 607.73 186.83Q606.93 187.68 606.93 189.24" fill="white" fill-opacity="0.7"/>
<path d="M624.93 197.83L623.87 197.83Q621.66 197.83 620.45 196.84Q619.24 195.84 619.24 194.02L621.40 194.02Q621.40 194.93 622.05 195.44Q622.70 195.96 623.87 195.96L624.93 195.96Q626.13 195.96 626.79 195.43Q627.45 194.90 627.45 193.94Q627.45 192.24 625.89 192.02L622.24 191.50Q620.90 191.30 620.15 190.38Q619.41 189.46 619.41 187.94Q619.41 186.22 620.60 185.23Q621.78 184.25 623.87 184.25L624.93 184.25Q626.85 184.25 628.06 185.20Q629.27 186.14 629.37 187.68L627.18 187.68Q627.14 186.98 626.52 186.53Q625.91 186.07 624.93 186.07L623.87 186.07Q622.77 186.07 622.14 186.58Q621.52 187.08 621.52 187.94Q621.52 189.34 622.79 189.53L626.20 190.01Q629.56 190.49 629.56 193.94Q629.56 195.79 628.35 196.81Q627.14 197.83 624.93 197.83" fill="white" fill-opacity="0.7"/>
<path d="M650.85 197.64L648.69 197.64L648.69 184.44L650.85 184.44L650.85 186.96L650.90 186.96Q651.06 185.69 651.98 184.94Q652.89 184.20 654.42 184.20Q656.49 184.20 657.60 185.44Q658.72 186.67 658.72 188.95L658.72 190.08L656.56 190.08L656.56 188.95Q656.56 186.07 653.75 186.07Q652.34 186.07 651.59 186.89Q650.85 187.70 650.85 189.24" fill="white" fill-opacity="0.7"/>
<path d="M666.45 197.88Q664.41 197.88 663.21 196.74Q662.01 195.60 662.01 193.75Q662.01 192.53 662.56 191.62Q663.11 190.70 664.10 190.19Q665.08 189.67 666.35 189.67L670.43 189.67L670.43 188.64Q670.43 186.07 667.62 186.07Q666.38 186.07 665.61 186.53Q664.84 186.98 664.79 187.80L662.63 187.80Q662.75 186.24 664.08 185.22Q665.42 184.20 667.62 184.20Q670.02 184.20 671.31 185.35Q672.59 186.50 672.59 188.57L672.59 197.64L670.46 197.64L670.46 195.24L670.41 195.24Q670.22 196.46 669.18 197.17Q668.15 197.88 666.45 197.88M666.98 196.06Q668.56 196.06 669.50 195.29Q670.43 194.52 670.43 193.20L670.43 191.35L666.59 191.35Q665.54 191.35 664.88 191.99Q664.22 192.62 664.22 193.68Q664.22 194.78 664.95 195.42Q665.68 196.06 666.98 196.06" fill="white" fill-opacity="0.7"/>
<path d="M687.16 197.64L683.32 197.64Q681.69 197.64 680.70 196.69Q679.72 195.74 679.72 194.16L679.72 186.41L675.93 186.41L675.93 184.44L679.72 184.44L679.72 180.72L681.88 180.72L681.88 184.44L687.28 184.44L687.28 186.41L681.88 186.41L681.88 194.16Q681.88 194.83 682.28 195.25Q682.67 195.67 683.32 195.67L687.16 195.67" fill="white" fill-opacity="0.7"/>
<path d="M702.52 197.64L691.24 197.64L691.24 195.67L695.92 195.67L695.92 186.41L691.72 186.41L691.72 184.44L698.08 184.44L698.08 195.67L702.52 195.67L702.52 197.64M696.76 182.06Q695.97 182.06 695.51 181.66Q695.06 181.25 695.06 180.55Q695.06 179.83 695.51 179.41Q695.97 178.99 696.76 178.99Q697.55 178.99 698.01 179.41Q698.46 179.83 698.46 180.55Q698.46 181.25 698.01 181.66Q697.55 182.06 696.76 182.06" fill="white" fill-opacity="0.7"/>
<path d="M710.80 197.83Q708.42 197.83 707.02 196.44Q705.62 195.05 705.62 192.55L705.62 189.53Q705.62 187.01 707.01 185.63Q708.40 184.25 710.80 184.25Q713.20 184.25 714.59 185.63Q715.98 187.01 715.98 189.53L715.98 192.55Q715.98 195.05 714.58 196.44Q713.18 197.83 710.80 197.83M710.80 195.91Q712.22 195.91 713.02 195.12Q713.82 194.33 713.82 192.79L713.82 189.29Q713.82 187.75 713.02 186.96Q712.22 186.17 710.80 186.17Q709.41 186.17 708.59 186.96Q707.78 187.75 707.78 189.29L707.78 192.79Q707.78 194.33 708.59 195.12Q709.41 195.91 710.80 195.91" fill="white" fill-opacity="0.7"/>
<path d="M722.37 197.64L720.21 197.64L720.21 184.44L722.37 184.44L722.37 186.96L722.39 186.96Q722.56 185.64 723.47 184.92Q724.38 184.20 725.90 184.20Q727.89 184.20 729.06 185.42Q730.24 186.65 730.24 188.76L730.24 197.64L728.08 197.64L728.08 189.14Q728.08 187.63 727.32 186.83Q726.57 186.02 725.27 186.02Q723.93 186.02 723.15 186.86Q722.37 187.70 722.37 189.24" fill="white" fill-opacity="0.7"/>
<path d="M754.19 197.88Q751.79 197.88 750.35 196.54Q748.91 195.19 748.91 192.84L748.91 189.24Q748.91 186.89 750.35 185.54Q751.79 184.20 754.19 184.20Q756.47 184.20 757.88 185.42Q759.28 186.65 759.35 188.76L757.19 188.76Q757.12 187.49 756.33 186.80Q755.54 186.12 754.19 186.12Q752.78 186.12 751.92 186.92Q751.07 187.73 751.07 189.22L751.07 192.84Q751.07 194.33 751.92 195.14Q752.78 195.96 754.19 195.96Q755.54 195.96 756.33 195.26Q757.12 194.57 757.19 193.32L759.35 193.32Q759.28 195.43 757.88 196.66Q756.47 197.88 754.19 197.88" fill="white" fill-opacity="0.7"/>
<path d="M767.25 197.88Q765.21 197.88 764.01 196.74Q762.81 195.60 762.81 193.75Q762.81 192.53 763.36 191.62Q763.91 190.70 764.90 190.19Q765.88 189.67 767.15 189.67L771.23 189.67L771.23 188.64Q771.23 186.07 768.42 186.07Q767.18 186.07 766.41 186.53Q765.64 186.98 765.59 187.80L763.43 187.80Q763.55 186.24 764.88 185.22Q766.22 184.20 768.42 184.20Q770.82 184.20 772.11 185.35Q773.39 186.50 773.39 188.57L773.39 197.64L771.26 197.64L771.26 195.24L771.21 195.24Q771.02 196.46 769.98 197.17Q768.95 197.88 767.25 197.88M767.78 196.06Q769.36 196.06 770.30 195.29Q771.23 194.52 771.23 193.20L771.23 191.35L767.39 191.35Q766.34 191.35 765.68 191.99Q765.02 192.62 765.02 193.68Q765.02 194.78 765.75 195.42Q766.48 196.06 767.78 196.06" fill="white" fill-opacity="0.7"/>
<path d="M780.45 197.64L778.29 197.64L778.29 184.44L780.45 184.44L780.45 186.96L780.50 186.96Q780.66 185.69 781.58 184.94Q782.49 184.20 784.02 184.20Q786.09 184.20 787.20 185.44Q788.32 186.67 788.32 188.95L788.32 190.08L786.16 190.08L786.16 188.95Q786.16 186.07 783.35 186.07Q781.94 186.07 781.19 186.89Q780.45 187.70 780.45 189.24" fill="white" fill-opacity="0.7"/>
<path d="M796.43 197.88Q794.46 197.88 793.28 196.56Q792.09 195.24 792.09 192.98L792.09 189.12Q792.09 186.84 793.26 185.52Q794.44 184.20 796.43 184.20Q797.92 184.20 798.89 184.94Q799.86 185.69 800.06 186.96L800.08 186.96L800.03 183.96L800.03 180.12L802.19 180.12L802.19 197.64L800.03 197.64L800.03 195.12L800.01 195.12Q799.84 196.42 798.88 197.15Q797.92 197.88 796.43 197.88M797.15 196.01Q798.50 196.01 799.26 195.17Q800.03 194.33 800.03 192.84L800.03 189.24Q800.03 187.75 799.26 186.91Q798.50 186.07 797.15 186.07Q795.78 186.07 795.02 186.78Q794.25 187.49 794.25 189.12L794.25 192.96Q794.25 194.57 795.02 195.29Q795.78 196.01 797.15 196.01" fill="white" fill-opacity="0.7"/>
<path d="M812.13 197.83L811.07 197.83Q808.86 197.83 807.65 196.84Q806.44 195.84 806.44 194.02L808.60 194.02Q808.60 194.93 809.25 195.44Q809.90 195.96 811.07 195.96L812.13 195.96Q813.33 195.96 813.99 195.43Q814.65 194.90 814.65 193.94Q814.65 192.24 813.09 192.02L809.44 191.50Q808.10 191.30 807.35 190.38Q806.61 189.46 806.61 187.94Q806.61 186.22 807.80 185.23Q808.98 184.25 811.07 184.25L812.13 184.25Q814.05 184.25 815.26 185.20Q816.47 186.14 816.57 187.68L814.38 187.68Q814.34 186.98 813.72 186.53Q813.11 186.07 812.13 186.07L811.07 186.07Q809.97 186.07 809.34 186.58Q808.72 187.08 808.72 187.94Q808.72 189.34 809.99 189.53L813.40 190.01Q816.76 190.49 816.76 193.94Q816.76 195.79 815.55 196.81Q814.34 197.83 812.13 197.83" fill="white" fill-opacity="0.7"/>
<path d="M840.38 197.88Q838.10 197.88 836.73 196.52Q835.36 195.17 835.36 192.84L835.36 184.44L837.52 184.44L837.52 192.84Q837.52 194.28 838.29 195.13Q839.06 195.98 840.38 195.98Q841.72 195.98 842.50 195.13Q843.28 194.28 843.28 192.84L843.28 184.44L845.44 184.44L845.44 192.84Q845.44 195.17 844.05 196.52Q842.66 197.88 840.38 197.88" fill="white" fill-opacity="0.7"/>
<path d="M851.97 197.64L849.81 197.64L849.81 184.44L851.97 184.44L851.97 186.96L851.99 186.96Q852.16 185.64 853.07 184.92Q853.98 184.20 855.50 184.20Q857.49 184.20 858.66 185.42Q859.84 186.65 859.84 188.76L859.84 197.64L857.68 197.64L857.68 189.14Q857.68 187.63 856.92 186.83Q856.17 186.02 854.87 186.02Q853.53 186.02 852.75 186.86Q851.97 187.70 851.97 189.24" fill="white" fill-opacity="0.7"/>
<path d="M868.43 197.88Q866.46 197.88 865.28 196.56Q864.09 195.24 864.09 192.98L864.09 189.12Q864.09 186.84 865.26 185.52Q866.44 184.20 868.43 184.20Q869.92 184.20 870.89 184.94Q871.86 185.69 872.06 186.96L872.08 186.96L872.03 183.96L872.03 180.12L874.19 180.12L874.19 197.64L872.03 197.64L872.03 195.12L872.01 195.12Q871.84 196.42 870.88 197.15Q869.92 197.88 868.43 197.88M869.15 196.01Q870.50 196.01 871.26 195.17Q872.03 194.33 872.03 192.84L872.03 189.24Q872.03 187.75 871.26 186.91Q870.50 186.07 869.15 186.07Q867.78 186.07 867.02 186.78Q866.25 187.49 866.25 189.12L866.25 192.96Q866.25 194.57 867.02 195.29Q867.78 196.01 869.15 196.01" fill="white" fill-opacity="0.7"/>
<path d="M883.60 197.88Q881.27 197.88 879.84 196.48Q878.42 195.07 878.42 192.60L878.42 189.48Q878.42 187.01 879.84 185.60Q881.27 184.20 883.60 184.20Q885.16 184.20 886.32 184.82Q887.49 185.45 888.14 186.58Q888.78 187.70 888.78 189.24L888.78 191.59L880.53 191.59L880.53 192.84Q880.53 194.30 881.37 195.16Q882.21 196.01 883.60 196.01Q884.80 196.01 885.58 195.54Q886.36 195.07 886.53 194.28L888.69 194.28Q888.47 195.94 887.08 196.91Q885.69 197.88 883.60 197.88M880.53 189.24L880.53 189.91L886.67 189.91L886.67 189.24Q886.67 187.68 885.87 186.83Q885.06 185.98 883.60 185.98Q882.14 185.98 881.33 186.83Q880.53 187.68 880.53 189.24" fill="white" fill-opacity="0.7"/>
<path d="M895.65 197.64L893.49 197.64L893.49 184.44L895.65 184.44L895.65 186.96L895.70 186.96Q895.86 185.69 896.78 184.94Q897.69 184.20 899.22 184.20Q901.29 184.20 902.40 185.44Q903.52 186.67 903.52 188.95L903.52 190.08L901.36 190.08L901.36 188.95Q901.36 186.07 898.55 186.07Q897.14 186.07 896.39 186.89Q895.65 187.70 895.65 189.24" fill="white" fill-opacity="0.7"/>
<path d="M924.04 197.64L921.88 197.64L921.88 180.12L932.20 180.12L932.20 182.09L923.99 182.09L923.99 187.90L931.58 187.90L931.58 189.86L924.04 189.86" fill="white" fill-opacity="0.7"/>
<path d="M941.20 197.83Q938.82 197.83 937.42 196.44Q936.02 195.05 936.02 192.55L936.02 189.53Q936.02 187.01 937.41 185.63Q938.80 184.25 941.20 184.25Q943.60 184.25 944.99 185.63Q946.38 187.01 946.38 189.53L946.38 192.55Q946.38 195.05 944.98 196.44Q943.58 197.83 941.20 197.83M941.20 195.91Q942.62 195.91 943.42 195.12Q944.22 194.33 944.22 192.79L944.22 189.29Q944.22 187.75 943.42 186.96Q942.62 186.17 941.20 186.17Q939.81 186.17 938.99 186.96Q938.18 187.75 938.18 189.29L938.18 192.79Q938.18 194.33 938.99 195.12Q939.81 195.91 941.20 195.91" fill="white" fill-opacity="0.7"/>
<path d="M955.60 197.83Q953.22 197.83 951.82 196.44Q950.42 195.05 950.42 192.55L950.42 189.53Q950.42 187.01 951.81 185.63Q953.20 184.25 955.60 184.25Q958 184.25 959.39 185.63Q960.78 187.01 960.78 189.53L960.78 192.55Q960.78 195.05 959.38 196.44Q957.98 197.83 955.60 197.83M955.60 195.91Q957.02 195.91 957.82 195.12Q958.62 194.33 958.62 192.79L958.62 189.29Q958.62 187.75 957.82 186.96Q957.02 186.17 955.60 186.17Q954.21 186.17 953.39 186.96Q952.58 187.75 952.58 189.29L952.58 192.79Q952.58 194.33 953.39 195.12Q954.21 195.91 955.60 195.91" fill="white" fill-opacity="0.7"/>
<path d="M969.23 197.88Q967.26 197.88 966.08 196.56Q964.89 195.24 964.89 192.98L964.89 189.12Q964.89 186.84 966.06 185.52Q967.24 184.20 969.23 184.20Q970.72 184.20 971.69 184.94Q972.66 185.69 972.86 186.96L972.88 186.96L972.83 183.96L972.83 180.12L974.99 180.12L974.99 197.64L972.83 197.64L972.83 195.12L972.81 195.12Q972.64 196.42 971.68 197.15Q970.72 197.88 969.23 197.88M969.95 196.01Q971.30 196.01 972.06 195.17Q972.83 194.33 972.83 192.84L972.83 189.24Q972.83 187.75 972.06 186.91Q971.30 186.07 969.95 186.07Q968.58 186.07 967.82 186.78Q967.05 187.49 967.05 189.12L967.05 192.96Q967.05 194.57 967.82 195.29Q968.58 196.01 969.95 196.01" fill="white" fill-opacity="0.7"/>
<path d="M984.47 201.48L982.24 201.48L983.56 194.14L986.15 194.14" fill="white" fill-opacity="0.7"/>
<path d="M1013.39 197.88Q1010.99 197.88 1009.60 196.54Q1008.21 195.19 1008.21 192.84L1008.21 184.92Q1008.21 182.57 1009.60 181.22Q1010.99 179.88 1013.39 179.88Q1015.74 179.88 1017.14 181.24Q1018.53 182.59 1018.53 184.92L1016.37 184.92Q1016.37 183.43 1015.59 182.63Q1014.81 181.82 1013.39 181.82Q1011.98 181.82 1011.17 182.63Q1010.37 183.43 1010.37 184.92L1010.37 192.84Q1010.37 194.33 1011.17 195.13Q1011.98 195.94 1013.39 195.94Q1014.81 195.94 1015.59 195.13Q1016.37 194.33 1016.37 192.84L1018.53 192.84Q1018.53 195.17 1017.14 196.52Q1015.74 197.88 1013.39 197.88" fill="white" fill-opacity="0.7"/>
<path d="M1033.72 197.64L1022.44 197.64L1022.44 195.67L1027.12 195.67L1027.12 186.41L1022.92 186.41L1022.92 184.44L1029.28 184.44L1029.28 195.67L1033.72 195.67L1033.72 197.64M1027.96 182.06Q1027.17 182.06 1026.71 181.66Q1026.26 181.25 1026.26 180.55Q1026.26 179.83 1026.71 179.41Q1027.17 178.99 1027.96 178.99Q1028.75 178.99 1029.21 179.41Q1029.66 179.83 1029.66 180.55Q1029.66 181.25 1029.21 181.66Q1028.75 182.06 1027.96 182.06" fill="white" fill-opacity="0.7"/>
<path d="M1043.42 197.64L1040.58 197.64L1036.10 184.44L1038.42 184.44L1041.30 193.32Q1041.57 194.11 1041.76 194.84Q1041.95 195.58 1042.05 195.98Q1042.17 195.58 1042.34 194.84Q1042.50 194.11 1042.74 193.32L1045.62 184.44L1047.90 184.44" fill="white" fill-opacity="0.7"/>
<path d="M1062.52 197.64L1051.24 197.64L1051.24 195.67L1055.92 195.67L1055.92 186.41L1051.72 186.41L1051.72 184.44L1058.08 184.44L1058.08 195.67L1062.52 195.67L1062.52 197.64M1056.76 182.06Q1055.97 182.06 1055.51 181.66Q1055.06 181.25 1055.06 180.55Q1055.06 179.83 1055.51 179.41Q1055.97 178.99 1056.76 178.99Q1057.55 178.99 1058.01 179.41Q1058.46 179.83 1058.46 180.55Q1058.46 181.25 1058.01 181.66Q1057.55 182.06 1056.76 182.06" fill="white" fill-opacity="0.7"/>
<path d="M1076.80 197.64L1072.72 197.64Q1070.97 197.64 1069.92 196.62Q1068.88 195.60 1068.88 193.92L1068.88 182.09L1064.32 182.09L1064.32 180.12L1071.04 180.12L1071.04 193.92Q1071.04 194.74 1071.50 195.20Q1071.95 195.67 1072.72 195.67L1076.80 195.67" fill="white" fill-opacity="0.7"/>
<path d="M77.30 229.88Q74.75 229.88 73.24 228.54Q71.73 227.19 71.73 224.84L73.89 224.84Q73.89 226.30 74.82 227.13Q75.76 227.96 77.30 227.96Q78.78 227.96 79.67 227.10Q80.56 226.23 80.56 224.84Q80.56 223.78 80 223Q79.43 222.22 78.38 221.94L75.71 221.19Q74.06 220.71 73.11 219.48Q72.16 218.24 72.16 216.56Q72.16 215.17 72.78 214.11Q73.41 213.06 74.54 212.47Q75.66 211.88 77.13 211.88Q78.62 211.88 79.76 212.47Q80.90 213.06 81.54 214.10Q82.19 215.14 82.19 216.51L80.03 216.51Q80.03 215.31 79.22 214.56Q78.40 213.80 77.13 213.80Q75.86 213.80 75.06 214.56Q74.27 215.31 74.27 216.51Q74.27 217.47 74.79 218.16Q75.30 218.84 76.24 219.10L78.98 219.87Q80.73 220.35 81.70 221.68Q82.67 223.02 82.67 224.84Q82.67 227.14 81.21 228.51Q79.74 229.88 77.30 229.88" fill="white" fill-opacity="0.7"/>
<path d="M91.58 229.88Q89.30 229.88 87.93 228.52Q86.56 227.17 86.56 224.84L86.56 216.44L88.72 216.44L88.72 224.84Q88.72 226.28 89.49 227.13Q90.26 227.98 91.58 227.98Q92.92 227.98 93.70 227.13Q94.48 226.28 94.48 224.84L94.48 216.44L96.64 216.44L96.64 224.84Q96.64 227.17 95.25 228.52Q93.86 229.88 91.58 229.88" fill="white" fill-opacity="0.7"/>
<path d="M103.17 233.96L101.01 233.96L101.01 216.44L103.17 216.44L103.17 218.96L103.19 218.96Q103.36 217.66 104.32 216.93Q105.28 216.20 106.77 216.20Q108.76 216.20 109.94 217.51Q111.11 218.82 111.11 221.10L111.11 224.96Q111.11 227.24 109.94 228.56Q108.76 229.88 106.77 229.88Q105.28 229.88 104.32 229.14Q103.36 228.39 103.19 227.12L103.12 227.12L103.17 230.12L103.17 233.96M106.05 228.01Q107.42 228.01 108.18 227.29Q108.95 226.57 108.95 224.96L108.95 221.12Q108.95 219.49 108.18 218.78Q107.42 218.07 106.05 218.07Q104.73 218.07 103.95 218.91Q103.17 219.75 103.17 221.24L103.17 224.84Q103.17 226.33 103.95 227.17Q104.73 228.01 106.05 228.01" fill="white" fill-opacity="0.7"/>
<path d="M117.57 233.96L115.41 233.96L115.41 216.44L117.57 216.44L117.57 218.96L117.59 218.96Q117.76 217.66 118.72 216.93Q119.68 216.20 121.17 216.20Q123.16 216.20 124.34 217.51Q125.51 218.82 125.51 221.10L125.51 224.96Q125.51 227.24 124.34 228.56Q123.16 229.88 121.17 229.88Q119.68 229.88 118.72 229.14Q117.76 228.39 117.59 227.12L117.52 227.12L117.57 230.12L117.57 233.96M120.45 228.01Q121.82 228.01 122.58 227.29Q123.35 226.57 123.35 224.96L123.35 221.12Q123.35 219.49 122.58 218.78Q121.82 218.07 120.45 218.07Q119.13 218.07 118.35 218.91Q117.57 219.75 117.57 221.24L117.57 224.84Q117.57 226.33 118.35 227.17Q119.13 228.01 120.45 228.01" fill="white" fill-opacity="0.7"/>
<path d="M140.80 229.64L136.72 229.64Q134.97 229.64 133.92 228.62Q132.88 227.60 132.88 225.92L132.88 214.09L128.32 214.09L128.32 212.12L135.04 212.12L135.04 225.92Q135.04 226.74 135.50 227.20Q135.95 227.67 136.72 227.67L140.80 227.67" fill="white" fill-opacity="0.7"/>
<path d="M155.32 229.64L144.04 229.64L144.04 227.67L148.72 227.67L148.72 218.41L144.52 218.41L144.52 216.44L150.88 216.44L150.88 227.67L155.32 227.67L155.32 229.64M149.56 214.06Q148.77 214.06 148.31 213.66Q147.86 213.25 147.86 212.55Q147.86 211.83 148.31 211.41Q148.77 210.99 149.56 210.99Q150.35 210.99 150.81 211.41Q151.26 211.83 151.26 212.55Q151.26 213.25 150.81 213.66Q150.35 214.06 149.56 214.06" fill="white" fill-opacity="0.7"/>
<path d="M163.60 229.88Q161.27 229.88 159.84 228.48Q158.42 227.07 158.42 224.60L158.42 221.48Q158.42 219.01 159.84 217.60Q161.27 216.20 163.60 216.20Q165.16 216.20 166.32 216.82Q167.49 217.45 168.14 218.58Q168.78 219.70 168.78 221.24L168.78 223.59L160.53 223.59L160.53 224.84Q160.53 226.30 161.37 227.16Q162.21 228.01 163.60 228.01Q164.80 228.01 165.58 227.54Q166.36 227.07 166.53 226.28L168.69 226.28Q168.47 227.94 167.08 228.91Q165.69 229.88 163.60 229.88M160.53 221.24L160.53 221.91L166.67 221.91L166.67 221.24Q166.67 219.68 165.87 218.83Q165.06 217.98 163.60 217.98Q162.14 217.98 161.33 218.83Q160.53 219.68 160.53 221.24" fill="white" fill-opacity="0.7"/>
<path d="M178.53 229.83L177.47 229.83Q175.26 229.83 174.05 228.84Q172.84 227.84 172.84 226.02LNaN 226.02QNaN 226.93 175.65 227.44Q176.30 227.96 177.47 227.96L178.53 227.96Q179.73 227.96 180.39 227.43Q181.05 226.90 181.05 225.94Q181.05 224.24 179.49 224.02L175.84 223.50Q174.50 223.30 173.75 222.38Q173.01 221.46 173.01 219.94Q173.01 218.22 174.20 217.23Q175.38 216.25 177.47 216.25L178.53 216.25Q180.45 216.25 181.66 217.20Q182.87 218.14 182.97 219.68L180.78 219.68Q180.74 218.98 180.12 218.53Q179.51 218.07 178.53 218.07L177.47 218.07Q176.37 218.07 175.74 218.58Q175.12 219.08 175.12 219.94Q175.12 221.34 176.39 221.53L179.80 222.01Q183.16 222.49 183.16 225.94Q183.16 227.79 181.95 228.81Q180.74 229.83 178.53 229.83" fill="white" fill-opacity="0.7"/>
<path d="M205.65 229.88Q203.61 229.88 202.41 228.74Q201.21 227.60 201.21 225.75Q201.21 224.53 201.76 223.62Q202.31 222.70 203.30 222.19Q204.28 221.67 205.55 221.67L209.63 221.67L209.63 220.64Q209.63 218.07 206.82 218.07Q205.58 218.07 204.81 218.53Q204.04 218.98 203.99 219.80L201.83 219.80Q201.95 218.24 203.28 217.22Q204.62 216.20 206.82 216.20Q209.22 216.20 210.51 217.35Q211.79 218.50 211.79 220.57L211.79 229.64L209.66 229.64L209.66 227.24L209.61 227.24Q209.42 228.46 208.38 229.17Q207.35 229.88 205.65 229.88M206.18 228.06Q207.76 228.06 208.70 227.29Q209.63 226.52 209.63 225.20L209.63 223.35L205.79 223.35Q204.74 223.35 204.08 223.99Q203.42 224.62 203.42 225.68Q203.42 226.78 204.15 227.42Q204.88 228.06 206.18 228.06" fill="white" fill-opacity="0.7"/>
<path d="M218.37 229.64L216.21 229.64L216.21 216.44L218.37 216.44L218.37 218.96L218.39 218.96Q218.56 217.64 219.47 216.92Q220.38 216.20 221.90 216.20Q223.89 216.20 225.06 217.42Q226.24 218.65 226.24 220.76L226.24 229.64L224.08 229.64L224.08 221.14Q224.08 219.63 223.32 218.83Q222.57 218.02 221.27 218.02Q219.93 218.02 219.15 218.86Q218.37 219.70 218.37 221.24" fill="white" fill-opacity="0.7"/>
<path d="M234.83 229.88Q232.86 229.88 231.68 228.56Q230.49 227.24 230.49 224.98L230.49 221.12Q230.49 218.84 231.66 217.52Q232.84 216.20 234.83 216.20Q236.32 216.20 237.29 216.94Q238.26 217.69 238.46 218.96L238.48 218.96L238.43 215.96L238.43 212.12L240.59 212.12L240.59 229.64L238.43 229.64L238.43 227.12L238.41 227.12Q238.24 228.42 237.28 229.15Q236.32 229.88 234.83 229.88M235.55 228.01Q236.90 228.01 237.66 227.17Q238.43 226.33 238.43 224.84L238.43 221.24Q238.43 219.75 237.66 218.91Q236.90 218.07 235.55 218.07Q234.18 218.07 233.42 218.78Q232.65 219.49 232.65 221.12L232.65 224.96Q232.65 226.57 233.42 227.29Q234.18 228.01 235.55 228.01" fill="white" fill-opacity="0.7"/>
<path d="M264.59 229.88Q262.19 229.88 260.80 228.54Q259.41 227.19 259.41 224.84L259.41 216.92Q259.41 214.57 260.80 213.22Q262.19 211.88 264.59 211.88Q266.94 211.88 268.34 213.24Q269.73 214.59 269.73 216.92L267.57 216.92Q267.57 215.43 266.79 214.63Q266.01 213.82 264.59 213.82Q263.18 213.82 262.37 214.63Q261.57 215.43 261.57 216.92L261.57 224.84Q261.57 226.33 262.37 227.13Q263.18 227.94 264.59 227.94Q266.01 227.94 266.79 227.13Q267.57 226.33 267.57 224.84L269.73 224.84Q269.73 227.17 268.34 228.52Q266.94 229.88 264.59 229.88" fill="white" fill-opacity="0.7"/>
<path d="M278.80 229.83Q276.42 229.83 275.02 228.44Q273.62 227.05 273.62 224.55L273.62 221.53Q273.62 219.01 275.01 217.63Q276.40 216.25 278.80 216.25Q281.20 216.25 282.59 217.63Q283.98 219.01 283.98 221.53L283.98 224.55Q283.98 227.05 282.58 228.44Q281.18 229.83 278.80 229.83M278.80 227.91Q280.22 227.91 281.02 227.12Q281.82 226.33 281.82 224.79L281.82 221.29Q281.82 219.75 281.02 218.96Q280.22 218.17 278.80 218.17Q277.41 218.17 276.59 218.96Q275.78 219.75 275.78 221.29L275.78 224.79Q275.78 226.33 276.59 227.12Q277.41 227.91 278.80 227.91" fill="white" fill-opacity="0.7"/>
<path d="M290.37 229.64L288.21 229.64L288.21 216.44L290.37 216.44L290.37 218.96L290.39 218.96Q290.56 217.64 291.47 216.92Q292.38 216.20 293.90 216.20Q295.89 216.20 297.06 217.42Q298.24 218.65 298.24 220.76L298.24 229.64L296.08 229.64L296.08 221.14Q296.08 219.63 295.32 218.83Q294.57 218.02 293.27 218.02Q291.93 218.02 291.15 218.86Q290.37 219.70 290.37 221.24" fill="white" fill-opacity="0.7"/>
<path d="M308.13 229.83L307.07 229.83Q304.86 229.83 303.65 228.84Q302.44 227.84 302.44 226.02L304.60 226.02Q304.60 226.93 305.25 227.44Q305.90 227.96 307.07 227.96L308.13 227.96Q309.33 227.96 309.99 227.43Q310.65 226.90 310.65 225.94Q310.65 224.24 309.09 224.02L305.44 223.50Q304.10 223.30 303.35 222.38Q302.61 221.46 302.61 219.94Q302.61 218.22 303.80 217.23Q304.98 216.25 307.07 216.25L308.13 216.25Q310.05 216.25 311.26 217.20Q312.47 218.14 312.57 219.68L310.38 219.68Q310.34 218.98 309.72 218.53Q309.11 218.07 308.13 218.07L307.07 218.07Q305.97 218.07 305.34 218.58Q304.72 219.08 304.72 219.94Q304.72 221.34 305.99 221.53L309.40 222.01Q312.76 222.49 312.76 225.94Q312.76 227.79 311.55 228.81Q310.34 229.83 308.13 229.83" fill="white" fill-opacity="0.7"/>
<path d="M321.98 229.88Q319.70 229.88 318.33 228.52Q316.96 227.17 316.96 224.84L316.96 216.44L319.12 216.44L319.12 224.84Q319.12 226.28 319.89 227.13Q320.66 227.98 321.98 227.98Q323.32 227.98 324.10 227.13Q324.88 226.28 324.88 224.84L324.88 216.44L327.04 216.44L327.04 224.84Q327.04 227.17 325.65 228.52Q324.26 229.88 321.98 229.88" fill="white" fill-opacity="0.7"/>
<path d="M332.66 229.64L330.64 229.64L330.64 216.44L332.51 216.44L332.51 218.19L332.56 218.19Q332.68 217.30 333.27 216.75Q333.86 216.20 334.77 216.20Q335.63 216.20 336.23 216.70Q336.83 217.21 337.10 218.07L337.12 218.07Q337.29 217.21 337.88 216.70Q338.46 216.20 339.38 216.20Q340.65 216.20 341.40 217.15Q342.16 218.10 342.16 219.61L342.16 229.64L340.14 229.64L340.14 219.58Q340.14 218.79 339.76 218.32Q339.38 217.86 338.70 217.86Q338.06 217.86 337.67 218.31Q337.29 218.77 337.29 219.56L337.29 229.64L335.51 229.64L335.51 219.58Q335.51 218.79 335.13 218.32Q334.74 217.86 334.10 217.86Q333.42 217.86 333.04 218.31Q332.66 218.77 332.66 219.56" fill="white" fill-opacity="0.7"/>
<path d="M350.80 229.88Q348.47 229.88 347.04 228.48Q345.62 227.07 345.62 224.60L345.62 221.48Q345.62 219.01 347.04 217.60Q348.47 216.20 350.80 216.20Q352.36 216.20 353.52 216.82Q354.69 217.45 355.34 218.58Q355.98 219.70 355.98 221.24L355.98 223.59L347.73 223.59L347.73 224.84Q347.73 226.30 348.57 227.16Q349.41 228.01 350.80 228.01Q352 228.01 352.78 227.54Q353.56 227.07 353.73 226.28L355.89 226.28Q355.67 227.94 354.28 228.91Q352.89 229.88 350.80 229.88M347.73 221.24L347.73 221.91L353.87 221.91L353.87 221.24Q353.87 219.68 353.07 218.83Q352.26 217.98 350.80 217.98Q349.34 217.98 348.53 218.83Q347.73 219.68 347.73 221.24" fill="white" fill-opacity="0.7"/>
<path d="M362.85 229.64L360.69 229.64L360.69 216.44L362.85 216.44L362.85 218.96L362.90 218.96Q363.06 217.69 363.98 216.94Q364.89 216.20 366.42 216.20Q368.49 216.20 369.60 217.44Q370.72 218.67 370.72 220.95L370.72 222.08L368.56 222.08L368.56 220.95Q368.56 218.07 365.75 218.07Q364.34 218.07 363.59 218.89Q362.85 219.70 362.85 221.24" fill="white" fill-opacity="0.7"/>
<path d="M390.21 229.64L388 229.64L392.56 212.12L395.46 212.12L400 229.64L397.82 229.64L396.66 224.98L391.36 224.98L390.21 229.64M393.14 217.74L391.79 223.16L396.21 223.16L394.86 217.76Q394.48 216.22 394.26 215.19Q394.05 214.16 394 213.85Q393.95 214.16 393.74 215.19Q393.52 216.22 393.14 217.74" fill="white" fill-opacity="0.7"/>
<path d="M408.52 229.64L406.36 229.64L406.36 220.21L402.52 220.21L402.52 218.24L406.36 218.24L406.36 215.48Q406.36 213.92 407.34 213.02Q408.33 212.12 410.06 212.12L413.92 212.12L413.92 214.09L410.06 214.09Q408.52 214.09 408.52 215.48L408.52 218.24L413.92 218.24L413.92 220.21L408.52 220.21" fill="white" fill-opacity="0.7"/>
<path d="M422.92 229.64L420.76 229.64L420.76 220.21L416.92 220.21L416.92 218.24L420.76 218.24L420.76 215.48Q420.76 213.92 421.74 213.02Q422.73 212.12 424.46 212.12L428.32 212.12L428.32 214.09L424.46 214.09Q422.92 214.09 422.92 215.48L422.92 218.24L428.32 218.24L428.32 220.21L422.92 220.21" fill="white" fill-opacity="0.7"/>
<path d="M436.05 229.88Q434.01 229.88 432.81 228.74Q431.61 227.60 431.61 225.75Q431.61 224.53 432.16 223.62Q432.71 222.70 433.70 222.19Q434.68 221.67 435.95 221.67L440.03 221.67L440.03 220.64Q440.03 218.07 437.22 218.07Q435.98 218.07 435.21 218.53Q434.44 218.98 434.39 219.80L432.23 219.80Q432.35 218.24 433.68 217.22Q435.02 216.20 437.22 216.20Q439.62 216.20 440.91 217.35Q442.19 218.50 442.19 220.57L442.19 229.64L440.06 229.64L440.06 227.24L440.01 227.24Q439.82 228.46 438.78 229.17Q437.75 229.88 436.05 229.88M436.58 228.06Q438.16 228.06 439.10 227.29Q440.03 226.52 440.03 225.20L440.03 223.35L436.19 223.35Q435.14 223.35 434.48 223.99Q433.82 224.62 433.82 225.68Q433.82 226.78 434.55 227.42Q435.28 228.06 436.58 228.06" fill="white" fill-opacity="0.7"/>
<path d="M457.72 229.64L446.44 229.64L446.44 227.67L451.12 227.67L451.12 218.41L446.92 218.41L446.92 216.44L453.28 216.44L453.28 227.67L457.72 227.67L457.72 229.64M451.96 214.06Q451.17 214.06 450.71 213.66Q450.26 213.25 450.26 212.55Q450.26 211.83 450.71 211.41Q451.17 210.99 451.96 210.99Q452.75 210.99 453.21 211.41Q453.66 211.83 453.66 212.55Q453.66 213.25 453.21 213.66Q452.75 214.06 451.96 214.06" fill="white" fill-opacity="0.7"/>
<path d="M463.65 229.64L461.49 229.64L461.49 216.44L463.65 216.44L463.65 218.96L463.70 218.96Q463.86 217.69 464.78 216.94Q465.69 216.20 467.22 216.20Q469.29 216.20 470.40 217.44Q471.52 218.67 471.52 220.95L471.52 222.08L469.36 222.08L469.36 220.95Q469.36 218.07 466.55 218.07Q465.14 218.07 464.39 218.89Q463.65 219.70 463.65 221.24" fill="white" fill-opacity="0.7"/>
<path d="M480.93 229.83L479.87 229.83Q477.66 229.83 476.45 228.84Q475.24 227.84 475.24 226.02L477.40 226.02Q477.40 226.93 478.05 227.44Q478.70 227.96 479.87 227.96L480.93 227.96Q482.13 227.96 482.79 227.43Q483.45 226.90 483.45 225.94Q483.45 224.24 481.89 224.02L478.24 223.50Q476.90 223.30 476.15 222.38Q475.41 221.46 475.41 219.94Q475.41 218.22 476.60 217.23Q477.78 216.25 479.87 216.25L480.93 216.25Q482.85 216.25 484.06 217.20Q485.27 218.14 485.37 219.68L483.18 219.68Q483.14 218.98 482.52 218.53Q481.91 218.07 480.93 218.07L479.87 218.07Q478.77 218.07 478.14 218.58Q477.52 219.08 477.52 219.94Q477.52 221.34 478.79 221.53L482.20 222.01Q485.56 222.49 485.56 225.94Q485.56 227.79 484.35 228.81Q483.14 229.83 480.93 229.83" fill="white" fill-opacity="0.7"/>
<path d="M494.80 229.88Q493.91 229.88 493.37 229.35Q492.83 228.82 492.83 227.98Q492.83 227.10 493.37 226.54Q493.91 225.99 494.80 225.99Q495.69 225.99 496.23 226.54Q496.77 227.10 496.77 227.98Q496.77 228.82 496.23 229.35Q495.69 229.88 494.80 229.88" fill="white" fill-opacity="0.7"/>
<path d="M76.11 136.06L66.42 136.06L84.56 65.98L97.14 65.98L115.18 136.06L105.49 136.06L101.07 117.82L80.53 117.82L76.11 136.06M87.54 88.92L82.45 109.95L99.15 109.95L94.16 89.02Q92.72 83.26 91.86 79.23Q90.99 75.20 90.80 73.76Q90.61 75.20 89.74 79.23Q88.88 83.26 87.54 88.92M137.55 136.06L128.05 136.06L128.05 65.98L150.80 65.98Q157.52 65.98 162.42 68.57Q167.31 71.16 170 75.82Q172.69 80.48 172.69 86.91Q172.69 93.24 170 97.90Q167.31 102.56 162.37 105.15Q157.42 107.74 150.80 107.74L137.55 107.74L137.55 136.06M137.55 74.43L137.55 99.29L150.80 99.29Q156.37 99.29 159.63 95.88Q162.90 92.48 162.90 86.91Q162.90 81.24 159.63 77.84Q156.37 74.43 150.80 74.43L137.55 74.43M225.10 136.06L186.90 136.06L186.90 127.42L201.20 127.42L201.20 74.62L186.90 74.62L186.90 65.98L225.10 65.98L225.10 74.62L210.80 74.62L210.80 127.42L225.10 127.42L225.10 136.06M263.98 137.02Q253.62 137.02 247.47 131.60Q241.33 126.17 241.33 116.67L250.83 116.67Q250.83 122.24 254.38 125.40Q257.94 128.57 263.98 128.57Q269.74 128.57 273.15 125.36Q276.56 122.14 276.56 116.76Q276.56 112.73 274.35 109.71Q272.14 106.68 268.11 105.63L257.74 102.84Q250.93 100.92 246.94 95.88Q242.96 90.84 242.96 83.93Q242.96 78.27 245.50 74Q248.05 69.72 252.66 67.37Q257.26 65.02 263.31 65.02Q269.46 65.02 274.11 67.37Q278.77 69.72 281.36 73.95Q283.95 78.17 283.95 83.74L274.54 83.74Q274.54 79.13 271.42 76.25Q268.30 73.37 263.31 73.37Q258.32 73.37 255.30 76.25Q252.27 79.13 252.27 83.74Q252.27 87.48 254.29 90.03Q256.30 92.57 259.95 93.63L270.61 96.51Q277.81 98.43 281.84 103.85Q285.87 109.28 285.87 116.76Q285.87 122.91 283.18 127.47Q280.50 132.03 275.55 134.52Q270.61 137.02 263.98 137.02M342.51 136.06L301.71 136.06L301.71 65.98L342.51 65.98L342.51 74.52L311.12 74.52L311.12 95.36L339.15 95.36L339.15 103.61L311.12 103.61L311.12 127.52L342.51 127.52L342.51 136.06M383.60 136.06L374.10 136.06L374.10 74.62L355.09 74.62L355.09 65.98L402.51 65.98L402.51 74.62L383.60 74.62L383.60 136.06M436.40 137.02Q426.51 137.02 421.18 131.55Q415.86 126.08 415.86 116.67L415.86 65.98L425.36 65.98L425.36 116.67Q425.36 122.24 428.10 125.40Q430.83 128.57 436.40 128.57Q441.87 128.57 444.70 125.40Q447.54 122.24 447.54 116.67L447.54 65.98L457.04 65.98L457.04 116.67Q457.04 126.17 451.71 131.60Q446.38 137.02 436.40 137.02M551.98 137.02Q542.29 137.02 536.58 131.60Q530.86 126.17 530.86 116.67L530.86 85.28Q530.86 75.87 536.58 70.44Q542.29 65.02 551.98 65.02Q561.58 65.02 567.30 70.49Q573.01 75.96 573.01 85.28L563.50 85.28Q563.50 79.61 560.43 76.54Q557.36 73.47 551.98 73.47Q546.51 73.47 543.44 76.54Q540.37 79.61 540.37 85.28L540.37 116.67Q540.37 122.43 543.44 125.50Q546.51 128.57 551.98 128.57Q557.36 128.57 560.43 125.50Q563.50 122.43 563.50 116.67L563.50 107.55L549.87 107.55L549.87 99.10L573.01 99.10L573.01 116.67Q573.01 126.08 567.30 131.55Q561.58 137.02 551.98 137.02M609.20 137.02Q599.60 137.02 594.03 131.45Q588.46 125.88 588.46 115.71L588.46 86.24Q588.46 76.16 594.03 70.59Q599.60 65.02 609.20 65.02Q618.80 65.02 624.37 70.54Q629.94 76.06 629.94 86.24L629.94 115.71Q629.94 125.88 624.37 131.45Q618.80 137.02 609.20 137.02M609.20 128.57Q614.58 128.57 617.50 125.50Q620.43 122.43 620.43 116.67L620.43 85.28Q620.43 79.61 617.55 76.54Q614.67 73.47 609.20 73.47Q603.73 73.47 600.85 76.54Q597.97 79.61 597.97 85.28L597.97 116.67Q597.97 122.43 600.90 125.50Q603.82 128.57 609.20 128.57M673.14 136.06L660.37 136.06L642.42 65.98L652.21 65.98L663.82 113.21Q664.98 117.72 665.79 121.90Q666.61 126.08 666.99 128.28Q667.28 126.08 668.19 121.85Q669.10 117.63 670.16 113.12L681.39 65.98L691.18 65.98L673.14 136.06M782.77 137.02Q773.07 137.02 767.36 131.60Q761.65 126.17 761.65 116.67L761.65 85.28Q761.65 75.87 767.36 70.44Q773.07 65.02 782.77 65.02Q792.37 65.02 798.08 70.49Q803.79 75.96 803.79 85.28L794.29 85.28Q794.29 79.61 791.22 76.54Q788.14 73.47 782.77 73.47Q777.30 73.47 774.22 76.54Q771.15 79.61 771.15 85.28L771.15 116.67Q771.15 122.43 774.22 125.50Q777.30 128.57 782.77 128.57Q788.14 128.57 791.22 125.50Q794.29 122.43 794.29 116.67L803.79 116.67Q803.79 126.08 798.08 131.55Q792.37 137.02 782.77 137.02M858.70 136.06L820.50 136.06L820.50 127.42L834.80 127.42L834.80 74.62L820.50 74.62L820.50 65.98L858.70 65.98L858.70 74.62L844.40 74.62L844.40 127.42L858.70 127.42L858.70 136.06M903.54 136.06L890.77 136.06L872.82 65.98L882.61 65.98L894.22 113.21Q895.38 117.72 896.19 121.90Q897.01 126.08 897.39 128.28Q897.68 126.08 898.59 121.85Q899.50 117.63 900.56 113.12L911.79 65.98L921.58 65.98L903.54 136.06M973.90 136.06L935.70 136.06L935.70 127.42LNaN 127.42LNaN 74.62L935.70 74.62L935.70 65.98L973.90 65.98L973.90 74.62L959.60 74.62L959.60 127.42L973.90 127.42L973.90 136.06M1036.59 136.06L995.89 136.06L995.89 65.98L1005.39 65.98L1005.39 127.42L1036.59 127.42L1036.59 136.06M1070.38 137.02Q1060.02 137.02 1053.87 131.60Q1047.73 126.17 1047.73 116.67L1057.23 116.67Q1057.23 122.24 1060.78 125.40Q1064.34 128.57 1070.38 128.57Q1076.14 128.57 1079.55 125.36Q1082.96 122.14 1082.96 116.76Q1082.96 112.73 1080.75 109.71Q1078.54 106.68 1074.51 105.63L1064.14 102.84Q1057.33 100.92 1053.34 95.88Q1049.36 90.84 1049.36 83.93Q1049.36 78.27 1051.90 74Q1054.45 69.72 1059.06 67.37Q1063.66 65.02 1069.71 65.02Q1075.86 65.02 1080.51 67.37Q1085.17 69.72 1087.76 73.95Q1090.35 78.17 1090.35 83.74L1080.94 83.74Q1080.94 79.13 1077.82 76.25Q1074.70 73.37 1069.71 73.37Q1064.72 73.37 1061.70 76.25Q1058.67 79.13 1058.67 83.74Q1058.67 87.48 1060.69 90.03Q1062.70 92.57 1066.35 93.63L1077.01 96.51Q1084.21 98.43 1088.24 103.85Q1092.27 109.28 1092.27 116.76Q1092.27 122.91 1089.58 127.47Q1086.90 132.03 1081.95 134.52Q1077.01 137.02 1070.38 137.02M1127.60 137.02Q1117.71 137.02 1112.38 131.55Q1107.06 126.08 1107.06 116.67L1107.06 65.98L1116.56 65.98L1116.56 116.67Q1116.56 122.24 1119.30 125.40Q1122.03 128.57 1127.60 128.57Q1133.07 128.57 1135.90 125.40Q1138.74 122.24 1138.74 116.67L1138.74 65.98L1148.24 65.98L1148.24 116.67Q1148.24 126.17 1142.91 131.60Q1137.58 137.02 1127.60 137.02M1174.35 136.06L1164.85 136.06L1164.85 65.98L1187.60 65.98Q1194.32 65.98 1199.22 68.57Q1204.11 71.16 1206.80 75.82Q1209.49 80.48 1209.49 86.91Q1209.49 93.24 1206.80 97.90Q1204.11 102.56 1199.17 105.15Q1194.22 107.74 1187.60 107.74L1174.35 107.74L1174.35 136.06M1174.35 74.43L1174.35 99.29L1187.60 99.29Q1193.17 99.29 1196.43 95.88Q1199.70 92.48 1199.70 86.91Q1199.70 81.24 1196.43 77.84Q1193.17 74.43 1187.60 74.43L1174.35 74.43M1231.95 136.06L1222.45 136.06L1222.45 65.98L1245.20 65.98Q1251.92 65.98 1256.82 68.57Q1261.71 71.16 1264.40 75.82Q1267.09 80.48 1267.09 86.91Q1267.09 93.24 1264.40 97.90Q1261.71 102.56 1256.77 105.15Q1251.82 107.74 1245.20 107.74L1231.95 107.74L1231.95 136.06M1231.95 74.43L1231.95 99.29L1245.20 99.29Q1250.77 99.29 1254.03 95.88Q1257.30 92.48 1257.30 86.91Q1257.30 81.24 1254.03 77.84Q1250.77 74.43 1245.20 74.43L1231.95 74.43M1324.59 136.06L1283.89 136.06L1283.89 65.98L1293.39 65.98L1293.39 127.42L1324.59 127.42L1324.59 136.06M1377.10 136.06L1338.90 136.06L1338.90 127.42L1353.20 127.42L1353.20 74.62L1338.90 74.62L1338.90 65.98L1377.10 65.98L1377.10 74.62L1362.80 74.62L1362.80 127.42L1377.10 127.42L1377.10 136.06M1436.91 136.06L1396.11 136.06L1396.11 65.98L1436.91 65.98L1436.91 74.52L1405.52 74.52L1405.52 95.36L1433.55 95.36L1433.55 103.61L1405.52 103.61L1405.52 127.52L1436.91 127.52L1436.91 136.06M1473.58 137.02Q1463.22 137.02 1457.07 131.60Q1450.93 126.17 1450.93 116.67L1460.43 116.67Q1460.43 122.24 1463.98 125.40Q1467.54 128.57 1473.58 128.57Q1479.34 128.57 1482.75 125.36Q1486.16 122.14 1486.16 116.76Q1486.16 112.73 1483.95 109.71Q1481.74 106.68 1477.71 105.63L1467.34 102.84Q1460.53 100.92 1456.54 95.88Q1452.56 90.84 1452.56 83.93Q1452.56 78.27 1455.10 74Q1457.65 69.72 1462.26 67.37Q1466.86 65.02 1472.91 65.02Q1479.06 65.02 1483.71 67.37Q1488.37 69.72 1490.96 73.95Q1493.55 78.17 1493.55 83.74L1484.14 83.74Q1484.14 79.13 1481.02 76.25Q1477.90 73.37 1472.91 73.37Q1467.92 73.37 1464.90 76.25Q1461.87 79.13 1461.87 83.74Q1461.87 87.48 1463.89 90.03Q1465.90 92.57 1469.55 93.63L1480.21 96.51Q1487.41 98.43 1491.44 103.85Q1495.47 109.28 1495.47 116.76Q1495.47 122.91 1492.78 127.47Q1490.10 132.03 1485.15 134.52Q1480.21 137.02 1473.58 137.02M1519.95 136.06L1510.45 136.06L1510.45 65.98L1519.95 65.98L1519.95 95.74L1529.74 95.74L1544.72 65.98L1555.09 65.98L1538.10 99.68L1555.95 136.06L1545.20 136.06L1529.55 104.09L1519.95 104.09L1519.95 136.06M1609.71 136.06L1568.91 136.06L1568.91 65.98L1609.71 65.98L1609.71 74.52L1578.32 74.52L1578.32 95.36L1606.35 95.36L1606.35 103.61L1578.32 103.61L1578.32 127.52L1609.71 127.52L1609.71 136.06M1635.15 136.06L1625.74 136.06L1625.74 65.98L1647.44 65.98Q1653.87 65.98 1658.67 68.52Q1663.47 71.07 1666.16 75.63Q1668.85 80.19 1668.85 86.33Q1668.85 93.44 1665.25 98.52Q1661.65 103.61 1655.70 105.72L1669.81 136.06L1659.34 136.06L1646 106.78L1635.15 106.78L1635.15 136.06M1635.15 74.43L1635.15 98.33L1647.44 98.33Q1652.82 98.33 1655.94 95.07Q1659.06 91.80 1659.06 86.43Q1659.06 80.96 1655.89 77.69Q1652.72 74.43 1647.44 74.43L1635.15 74.43M1688.91 136.06L1679.22 136.06L1697.36 65.98L1709.94 65.98L1727.98 136.06L1718.29 136.06L1713.87 117.82L1693.33 117.82L1688.91 136.06M1700.34 88.92L1695.25 109.95L1711.95 109.95L1706.96 89.02Q1705.52 83.26 1704.66 79.23Q1703.79 75.20 1703.60 73.76Q1703.41 75.20 1702.54 79.23Q1701.68 83.26 1700.34 88.92M1785.39 136.06L1744.69 136.06L1744.69 65.98L1754.19 65.98L1754.19 127.42L1785.39 127.42L1785.39 136.06M1804.11 136.06L1794.42 136.06L1812.56 65.98L1825.14 65.98L1843.18 136.06L1833.49 136.06L1829.07 117.82L1808.53 117.82L1804.11 136.06M1815.54 88.92L1810.45 109.95L1827.15 109.95L1822.16 89.02Q1820.72 83.26 1819.86 79.23Q1818.99 75.20 1818.80 73.76Q1818.61 75.20 1817.74 79.23Q1816.88 83.26 1815.54 88.92" fill="url(#paint2_linear_0_1)"/>
<g id="Group 1">
<rect id="Rectangle 1" x="26" y="168" width="12" height="184" rx="5" fill="url(#paint3_linear_0_1)" fill-opacity="0.9"/>
</g>
<g id="Group 1_2">
<rect id="Rectangle 2" x="26" y="38" width="12" height="119" rx="5" fill="url(#paint4_linear_0_1)" fill-opacity="0.9"/>
</g>
<ellipse id="Ellipse 1" cx="148.5" cy="573" rx="215.5" ry="214" fill="url(#paint5_linear_0_1)" fill-opacity="0.4"/>
<rect id="Rectangle 3" x="1229" y="48" width="300" height="300" rx="25" fill="#FFFBFB" fill-opacity="0.9"/>
<g id="placeholder-logo"><g transform="translate(1229,48) translate(0.0,60.0) scale(1.2000)"><g fill="#666666">
  <path d="m88.05,27.65c-3.15,4 -3.2,51.2 -0.05,54.35c2.75,2.75 71.7,3.15 74.45,0.45c2.85,-2.9 2.3,-53.85 -0.65,-55.9c-1.95,-1.35 -7.15,-1.55 -36.95,-1.55l-34.7,0l-2.1,2.65zm69.45,3.35c0.65,0 1,8.6 1,23.75l0,23.75l-33,0l-33,0l-0.25,-23c-0.15,-12.6 -0.1,-23.45 0.15,-24.1c0.35,-0.85 8.9,-1.05 32.25,-0.75c17.55,0.2 32.3,0.35 32.85,0.35z"/>
  <path d="m99.15,37.3c-6.85,7.35 4.25,17.35 11.4,10.25c1.35,-1.35 2.45,-3.65 2.45,-5.05c0,-6.45 -9.35,-9.95 -13.85,-5.2z"/>
  <path d="m135,42.5c-0.7,0.85 -5.25,5.15 -10.1,9.6l-8.85,8.1l-3.2,-3.2l-3.15,-3.15l-6.35,6.3c-5.55,5.5 -6.35,6.75 -6.35,10.05l0,3.8l28.5,0l28.5,0l0,-8.6l0,-8.55l-8.15,-7.7c-9.35,-8.85 -9.15,-8.7 -10.85,-6.65zm7.25,15.2c0.95,0.9 1.75,2.9 1.75,4.45c6.35,-5.05 4.75,-7.15 4.9,-11.55c0.95,0 0,0 0,0l-6.65,7.1z"/>
  <path d="m53.65,110.75c0.1,4.8 0.45,8.65 0.75,8.5c0.35,-0.15 1.3,-0.25 2.1,-0.25c1.1,0 1.5,-1.2 1.5,-4.75l0,-4.75l3.25,5c4.9,7.5 6.2,6.75 6.55,-3.75c0.25,-8.15 0.15,-8.75 -1.7,-8.75c-1.65,0 -2.05,0.8 -2.3,4.75l-0.3,4.75l-2.8,-4.75c-4.85,-8.25 -7.25,-6.9 -7.05,4z"/>
  <path d="m91,108.9c0,9.65 0.3,10.1 6.1,10.1c5.8,0 7.15,-2.65 1.65,-3.2l-3.25,-0.3l-0.3,-6.75c-0.25,-5.95 -0.55,-6.75 -2.25,-6.75c-1.75,0 -1.95,0.7 -1.95,6.9z"/>
  <path d="m151,102.45c0,0.25 1,2.15 2.25,4.2c1.2,2.1 2.45,5.8 2.75,8.25c0.65,5.9 4,6.95 4,1.25c0.05,-2.1 1.25,-5.85 2.95,-8.9l2.9,-5.25l-2.5,0c-1.8,0 -2.8,0.85 -3.75,3.1l-1.3,3.05l-1.25,-3.05c-1.1,-2.6 -6.05,-4.8 -6.05,-2.65z"/>
  <path d="m191,107.45c0,9.05 3.4,8.85 4.25,-0.2c0.45,-5 0.35,-5.25 -1.9,-5.25c-2.2,0 -2.35,0.4 -2.35,5.45z"/>
  <path d="m180.8,104.75c-1.3,5.35 0.65,13.6 3.45,14.35c2.3,0.6 2.75,0.4 2.75,-1.2c0,-1.05 -0.45,-1.9 -1,-1.9c-0.55,0 -1,-1.6 -1,-3.5c0,-1.95 0.45,-3.5 1,-3.5c0.55,0 1,-0.7 1,-1.5c0,-0.85 -0.45,-1.5 -1,-1.5c-0.55,0 -1,-0.7 -1,-1.5c0,-2.1 -3.65,-1.9 -4.2,0.25z"/>
  <path d="m71.55,106.55c-2.2,2.25 -2.05,9.7 0.3,11.8c4.5,4.1 10.15,0.75 10.15,-6.1c0,-4.85 -2,-7.25 -6,-7.25c-1.55,0 -3.55,0.7 -4.45,1.55zm6.25,5.8c0.25,3.05 0,3.65 -1.6,3.65c-2.3,0 -3.25,-2.65 -2.05,-5.85c1.25,-3.35 3.3,-2.1 3.65,2.2z"/>
  <path d="m105.75,106.1c-2.5,1.45 -2.45,9.95 0.1,12.25c4.3,3.9 10.15,0.35 10.15,-6.2c0,-6 -5.15,-9.05 -10.25,-6.05zm6.05,6.25c0.25,3.05 0,3.65 -1.6,3.65c-2.3,0 -3.25,-2.65 -2.05,-5.85c1.25,-3.35 3.3,-2.1 3.65,2.2z"/>
  <path d="m119.2,106.2c-3.8,3.8 -0.4,12.55 4.4,11.35c1.9,-0.45 2.45,-0.3 2.15,0.65c-0.25,0.7 -1.55,1.2 -2.85,1.1c-4.05,-0.3 -5.35,0.45 -3.85,2.25c0.85,1.05 2.6,1.45 5.35,1.25l4.1,-0.3l0.3,-8.75l0.3,-8.75l-4.35,0c-2.4,0 -4.9,0.55 -5.55,1.2zm6.6,4.45c0.4,2.85 -2.15,4.85 -3.75,2.95c-0.9,-1.1 -0.9,-2 -0.05,-3.6c1.35,-2.5 3.4,-2.15 3.8,0.65z"/>
  <path d="m133.55,106.55c-2.2,2.25 -2.05,9.7 0.3,11.8c4.5,4.1 10.15,0.75 10.15,-6.1c0,-4.85 -2,-7.25 -6,-7.25c-1.55,0 -3.55,0.7 -4.45,1.55zm6.25,5.8c0.25,3.05 0,3.65 -1.6,3.65c-2.3,0 -3.25,-2.65 -2.05,-5.85c1.25,-3.35 3.3,-2.1 3.65,2.2z"/>
  <path d="m167.65,106.85c-3.9,4.3 -0.75,13.15 4.7,13.15c2.4,0 5.65,-2.75 5.65,-4.85c0,-1.4 -2.65,-1.55 -3.5,-0.15c-0.95,1.55 -4.5,1.15 -4.5,-0.5c0,-1.1 1.1,-1.5 4,-1.5c3.15,0 4,-0.35 4,-1.8c0,-5.3 -6.85,-8.25 -10.35,-4.35z"/>
  <path d="m191,117.5c0,2.15 0.4,2.6 2.25,2.3c1.5,-0.2 2.25,-1 2.25,-2.3c0,-1.3 -0.75,-2.1 -2.25,-2.3c-1.85,-0.3 -2.25,0.15 -2.25,2.3z"/>
 </g></g></g>
</g>
<defs>
<linearGradient id="paint0_linear_0_1" x1="0" y1="198" x2="1584" y2="198" gradientUnits="userSpaceOnUse">
<stop stop-color="#3D052C"/>
<stop offset="1"/>
</linearGradient>
<linearGradient id="paint1_linear_0_1" x1="323" y1="-224" x2="323" y2="352" gradientUnits="userSpaceOnUse">
<stop stop-color="#28F6F2" stop-opacity="0.4"/>
<stop offset="1" stop-color="#17908E" stop-opacity="0.7"/>
</linearGradient>
<linearGradient id="paint2_linear_0_1" x1="148.5" y1="38" x2="148.5" y2="140" gradientUnits="userSpaceOnUse">
<stop stop-color="white"/>
<stop offset="1" stop-color="#999999"/>
</linearGradient>
<linearGradient id="paint3_linear_0_1" x1="38" y1="260" x2="26" y2="260" gradientUnits="userSpaceOnUse">
<stop stop-color="#D9D9D9"/>
<stop offset="1" stop-color="#737373"/>
</linearGradient>
<linearGradient id="paint4_linear_0_1" x1="38" y1="97.5" x2="26" y2="97.5" gradientUnits="userSpaceOnUse">
<stop stop-color="#D9D9D9"/>
<stop offset="1" stop-color="#737373"/>
</linearGradient>
<linearGradient id="paint5_linear_0_1" x1="27.5" y1="434.5" x2="148.5" y2="787" gradientUnits="userSpaceOnUse">
<stop stop-color="#2E21BC"/>
<stop offset="1" stop-color="#150F56"/>
</linearGradient>
<clipPath id="clip0_0_1">
<rect width="1584" height="396" fill="white"/>
</clipPath>
</defs>
</svg>
